<svg xmlns="http://www.w3.org/2000/svg" version="1.1" xmlns:xlink="http://www.w3.org/1999/xlink" xmlns:svgjs="http://svgjs.dev/svgjs" width="1440" height="560" preserveAspectRatio="none" viewBox="0 0 1440 560"><g mask="url(&quot;#SvgjsMask1000&quot;)" fill="none"><rect width="1440" height="560" x="0" y="0" fill="#0e2a47"></rect><path d="M0,310.621C58.434,309.664,106.966,272.951,160.807,250.221C227.293,222.153,316.612,223.474,353.439,161.41C389.999,99.795,357.099,20.472,338.127,-48.615C321.042,-110.829,291.611,-167.317,249.698,-216.365C207.555,-265.683,158.789,-310.626,97.096,-330.68C34.427,-351.051,-34.224,-350.235,-96.581,-328.926C-157.453,-308.124,-207.369,-264.622,-246.227,-213.356C-283.397,-164.318,-308.342,-106.275,-311.907,-44.845C-315.307,13.739,-291.54,68.655,-265.65,121.318C-240.397,172.684,-210.843,222.328,-164.229,255.545C-116.235,289.745,-58.925,311.586,0,310.621" fill="#0b2239"></path><path d="M1440 1010.601C1539.236 1009.9970000000001 1647.549 1066.497 1731.666 1013.842 1815.784 961.1859999999999 1833.097 846.5840000000001 1856.196 750.0699999999999 1875.968 667.456 1872.371 583.454 1854.55 500.397 1837.705 421.89 1810.489 345.187 1756.559 285.7 1703.3319999999999 226.988 1626.357 203.29399999999998 1554.638 169.57999999999998 1469.171 129.40300000000002 1386.171 41.486999999999966 1295.87 69.137 1205.384 96.84300000000002 1190.84 219.62599999999998 1137.008 297.456 1090.212 365.11199999999997 1014.3199999999999 415.727 1000.101 496.752 985.7429999999999 578.566 1038.1 653.322 1060.519 733.303 1087.7640000000001 830.5 1064.541 957.85 1146.0430000000001 1017.406 1226.814 1076.4279999999999 1339.964 1011.21 1440 1010.601" fill="#113255"></path></g><defs><mask id="SvgjsMask1000"><rect width="1440" height="560" fill="#ffffff"></rect></mask></defs></svg>